<svg width="302" height="225" viewBox="0 0 302 225" fill="none" xmlns="http://www.w3.org/2000/svg">
<path d="M281.6 150.273C281.596 130.803 277.229 111.582 268.82 94.0225C260.411 76.4628 248.174 61.0106 233.008 48.8018C217.842 36.5931 200.133 27.938 181.183 23.4729C162.232 19.0079 142.522 18.8462 123.501 22.9999C104.48 27.1536 86.6316 35.517 71.2676 47.4754C55.9036 59.4337 43.4147 74.6831 34.7189 92.1026C26.0231 109.522 21.3414 128.669 21.018 148.136C20.6946 167.602 24.7376 186.894 32.85 204.593H269.76C277.587 187.555 281.626 169.022 281.6 150.273Z" fill="#E5F2F8"/>
<path d="M48.6401 131.12L76.8801 67.64L105.13 131.12" stroke="#004165" stroke-width="2" stroke-linecap="round" stroke-linejoin="round"/>
<path d="M195.37 191.79H185.57V183.79H169.48V170.9H160.69C157.445 166.455 155.694 161.094 155.69 155.59V146.52C155.768 142.448 156.931 138.471 159.06 135C159.904 133.567 160.349 131.933 160.349 130.27C160.349 128.607 159.904 126.973 159.06 125.54C156.926 122.063 155.763 118.079 155.69 114V67.89L164.16 70.28C172.027 72.5002 180.257 73.1291 188.37 72.13L225.09 67.63C225.09 66.9082 224.948 66.1935 224.671 65.5268C224.395 64.86 223.989 64.2544 223.478 63.7444C222.968 63.2345 222.361 62.8303 221.694 62.555C221.027 62.2797 220.312 62.1387 219.59 62.14H155.69C155.634 60.9297 155.114 59.7874 154.238 58.9507C153.361 58.1139 152.196 57.647 150.985 57.647C149.773 57.647 148.608 58.1139 147.732 58.9507C146.856 59.7874 146.336 60.9297 146.28 62.14H82.3799C81.6581 62.1387 80.9431 62.2797 80.2759 62.555C79.6086 62.8303 79.0023 63.2345 78.4914 63.7444C77.9805 64.2544 77.5753 64.86 77.2987 65.5268C77.0222 66.1935 76.8799 66.9082 76.8799 67.63L113.6 72.13C121.713 73.1291 129.943 72.5002 137.81 70.28L146.28 67.89V114C146.207 118.079 145.044 122.063 142.91 125.54C142.066 126.973 141.62 128.607 141.62 130.27C141.62 131.933 142.066 133.567 142.91 135C145.042 138.477 146.206 142.462 146.28 146.54V155.61C146.276 161.114 144.525 166.475 141.28 170.92H132.49V183.76H116.4V191.76H105C103.581 191.76 102.22 192.324 101.217 193.327C100.214 194.33 99.6499 195.691 99.6499 197.11V204.6H200.75V197.11C200.747 196.407 200.606 195.712 200.334 195.063C200.062 194.415 199.664 193.827 199.165 193.333C198.665 192.839 198.072 192.448 197.421 192.183C196.77 191.918 196.073 191.785 195.37 191.79Z" fill="white"/>
<g style="mix-blend-mode:multiply" opacity="0.15">
<path d="M146.28 62.14V114C146.207 118.079 145.043 122.063 142.91 125.54C142.066 126.973 141.62 128.606 141.62 130.27C141.62 131.933 142.066 133.567 142.91 135C145.042 138.477 146.206 142.462 146.28 146.54V155.61C146.276 161.114 144.525 166.475 141.28 170.92H151V57.44C150.381 57.4374 149.768 57.557 149.195 57.792C148.622 58.027 148.102 58.3728 147.663 58.8095C147.225 59.2462 146.877 59.7652 146.639 60.3367C146.402 60.9083 146.28 61.5211 146.28 62.14Z" fill="#004165"/>
</g>
<g style="mix-blend-mode:multiply" opacity="0.15">
<path d="M127.06 183.74H116.4V191.79H127.06V183.74Z" fill="#004165"/>
</g>
<g style="mix-blend-mode:multiply" opacity="0.15">
<path d="M105.06 191.79H110.28V204.63H99.6201V197.23C99.6201 195.787 100.193 194.404 101.213 193.383C102.234 192.363 103.617 191.79 105.06 191.79Z" fill="#004165"/>
</g>
<g style="mix-blend-mode:multiply" opacity="0.15">
<path d="M143.15 170.9H132.49V183.74H143.15V170.9Z" fill="#004165"/>
</g>
<path d="M10 204.62H291.97" stroke="#004165" stroke-width="2" stroke-linecap="round" stroke-linejoin="round"/>
<path d="M105 191.79H195.4C196.819 191.79 198.18 192.354 199.183 193.357C200.186 194.36 200.75 195.721 200.75 197.14V204.63H99.6201V197.14C99.6201 196.435 99.7595 195.737 100.03 195.086C100.301 194.435 100.698 193.844 101.198 193.346C101.698 192.849 102.291 192.456 102.944 192.189C103.596 191.922 104.295 191.786 105 191.79V191.79Z" stroke="#004165" stroke-width="2" stroke-linecap="round" stroke-linejoin="round"/>
<path d="M185.57 183.74H116.4V191.79H185.57V183.74Z" stroke="#004165" stroke-width="2" stroke-linecap="round" stroke-linejoin="round"/>
<path d="M169.47 170.9H132.49V183.74H169.47V170.9Z" stroke="#004165" stroke-width="2" stroke-linecap="round" stroke-linejoin="round"/>
<path d="M146.28 62.14H82.3799C81.6581 62.1387 80.9431 62.2797 80.2759 62.5551C79.6086 62.8304 79.0023 63.2345 78.4914 63.7445C77.9805 64.2544 77.5753 64.8601 77.2987 65.5268C77.0222 66.1935 76.8799 66.9082 76.8799 67.63V67.63L113.6 72.13C121.713 73.1292 129.943 72.5002 137.81 70.28L146.28 67.89" stroke="#004165" stroke-width="2" stroke-linecap="round" stroke-linejoin="round"/>
<path d="M155.69 62.14H219.59C220.312 62.1387 221.027 62.2797 221.694 62.5551C222.361 62.8304 222.968 63.2345 223.478 63.7445C223.989 64.2544 224.395 64.8601 224.671 65.5268C224.948 66.1935 225.09 66.9082 225.09 67.63V67.63L188.37 72.13C180.257 73.1292 172.027 72.5002 164.16 70.28L155.69 67.89" stroke="#004165" stroke-width="2" stroke-linecap="round" stroke-linejoin="round"/>
<path d="M253.33 131.12L225.09 67.64L196.84 131.12" stroke="#004165" stroke-width="2" stroke-linecap="round" stroke-linejoin="round"/>
<path d="M160.35 130.25C160.353 128.586 159.907 126.952 159.06 125.52C156.93 122.049 155.766 118.072 155.69 114V62.1401C155.69 60.8936 155.195 59.6981 154.313 58.8167C153.432 57.9353 152.236 57.4401 150.99 57.4401C150.372 57.4388 149.759 57.5594 149.188 57.795C148.617 58.0306 148.097 58.3766 147.66 58.8131C147.222 59.2497 146.875 59.7683 146.639 60.3392C146.402 60.91 146.28 61.522 146.28 62.1401V114C146.207 118.079 145.043 122.063 142.91 125.54C142.066 126.973 141.62 128.607 141.62 130.27C141.62 131.934 142.066 133.567 142.91 135C145.042 138.477 146.206 142.462 146.28 146.54V155.61C146.276 161.114 144.525 166.475 141.28 170.92H160.69C157.445 166.475 155.694 161.114 155.69 155.61V146.54C155.764 142.462 156.927 138.477 159.06 135C159.912 133.563 160.358 131.921 160.35 130.25Z" stroke="#004165" stroke-width="2" stroke-linecap="round" stroke-linejoin="round"/>
<path d="M196.84 139.84H253.33V131.11H196.84V139.84Z" fill="#004165" stroke="#004165" stroke-width="2" stroke-linecap="round" stroke-linejoin="round"/>
<path d="M105.13 131.12H48.6401V139.85H105.13V131.12Z" fill="#004165" stroke="#004165" stroke-width="2" stroke-linecap="round" stroke-linejoin="round"/>
<path d="M191.03 34.65C196.271 34.65 200.52 30.4012 200.52 25.16C200.52 19.9189 196.271 15.67 191.03 15.67C185.789 15.67 181.54 19.9189 181.54 25.16C181.54 30.4012 185.789 34.65 191.03 34.65Z" stroke="#007DBA" stroke-width="2" stroke-linecap="round" stroke-linejoin="round"/>
<path d="M121.73 29.7101V39.5701" stroke="#00C6D7" stroke-width="2" stroke-linecap="round" stroke-linejoin="round"/>
<path d="M126.66 34.64H116.8" stroke="#00C6D7" stroke-width="2" stroke-linecap="round" stroke-linejoin="round"/>
<path d="M40.1201 77.3201V87.1801" stroke="#007DBA" stroke-width="2" stroke-linecap="round" stroke-linejoin="round"/>
<path d="M45.0499 82.25H35.1899" stroke="#007DBA" stroke-width="2" stroke-linecap="round" stroke-linejoin="round"/>
<path d="M275.05 88V104.09" stroke="#00C6D7" stroke-width="2" stroke-linecap="round" stroke-linejoin="round"/>
<path d="M283.09 96.04H267" stroke="#00C6D7" stroke-width="2" stroke-linecap="round" stroke-linejoin="round"/>
<path d="M76.4535 129.617C86.1443 129.617 94.0002 121.755 94.0002 112.058C94.0002 102.36 86.1443 94.4983 76.4535 94.4983C66.7627 94.4983 58.9067 102.36 58.9067 112.058C58.9067 121.755 66.7627 129.617 76.4535 129.617Z" fill="white" stroke="#004165" stroke-width="2"/>
<path d="M76.4531 94.4984V90.3972" stroke="#004165" stroke-width="2" stroke-linecap="round" stroke-linejoin="round"/>
<path d="M71.481 90.3972H81.116" stroke="#004165" stroke-width="2" stroke-linecap="round" stroke-linejoin="round"/>
<path d="M76.1603 114.399C77.614 114.399 78.7923 113.22 78.7923 111.765C78.7923 110.31 77.614 109.131 76.1603 109.131C74.7067 109.131 73.5283 110.31 73.5283 111.765C73.5283 113.22 74.7067 114.399 76.1603 114.399Z" stroke="#007DBA" stroke-width="2" stroke-linejoin="round"/>
<path d="M78.1455 109.716L84.1444 103.707" stroke="#007DBA" stroke-width="2" stroke-linecap="round" stroke-linejoin="round"/>
<path d="M89.0288 99.4738L91.8901 96.6249" stroke="#004165" stroke-width="2" stroke-linecap="round" stroke-linejoin="round"/>
<path d="M60.2417 97.1323H45" stroke="#007DBA" stroke-width="2" stroke-linecap="round" stroke-linejoin="round"/>
<path d="M55.6516 104.449H46.0874" stroke="#007DBA" stroke-width="2" stroke-linecap="round" stroke-linejoin="round"/>
<path d="M52.8189 112.058H48.4619" stroke="#007DBA" stroke-width="2" stroke-linecap="round" stroke-linejoin="round"/>
<rect x="214.784" y="85.2245" width="22.3784" height="18.4865" fill="white"/>
<path fill-rule="evenodd" clip-rule="evenodd" d="M237.384 88.7004C237.384 81.4071 231.755 75.4948 224.812 75.4948C217.868 75.4948 212.239 81.4071 212.239 88.7004V98.5448" fill="white"/>
<path d="M212.239 98.5448V88.7004C212.239 81.4071 217.868 75.4948 224.812 75.4948C231.755 75.4948 237.384 81.4071 237.384 88.7004V98.5448" stroke="#007DBA" stroke-width="2" stroke-linecap="round" stroke-linejoin="round"/>
<path d="M225 129.306C234.941 129.306 243 121.247 243 111.306C243 101.365 234.941 93.3062 225 93.3062C215.059 93.3062 207 101.365 207 111.306C207 121.247 215.059 129.306 225 129.306Z" fill="white" stroke="#004165" stroke-width="2" stroke-linecap="round" stroke-linejoin="round"/>
<path d="M228.3 97.3086C224.826 96.4641 221.162 96.9455 218.024 98.659C214.885 100.372 212.499 103.195 211.331 106.574C210.163 109.953 210.297 113.647 211.708 116.932C213.118 120.218 215.703 122.859 218.957 124.34C222.211 125.822 225.901 126.036 229.305 124.941C232.709 123.847 235.582 121.522 237.363 118.422C239.144 115.321 239.705 111.668 238.935 108.177C238.166 104.685 236.123 101.605 233.204 99.5403" stroke="#007DBA" stroke-width="2" stroke-linecap="round" stroke-linejoin="round"/>
<path d="M221.143 110.07C222.59 110.07 223.763 108.897 223.763 107.45C223.763 106.004 222.59 104.831 221.143 104.831C219.697 104.831 218.524 106.004 218.524 107.45C218.524 108.897 219.697 110.07 221.143 110.07Z" stroke="#004165" stroke-width="2"/>
<path d="M229.526 118.452C230.973 118.452 232.145 117.279 232.145 115.832C232.145 114.386 230.973 113.213 229.526 113.213C228.079 113.213 226.907 114.386 226.907 115.832C226.907 117.279 228.079 118.452 229.526 118.452Z" stroke="#004165" stroke-width="2"/>
<path d="M232.144 104.831L218.524 118.452" stroke="#004165" stroke-width="2" stroke-linecap="round"/>
<rect x="122.561" y="127.999" width="59.0026" height="21.0009" fill="white"/>
<path d="M122.561 124.912L140.858 111.998L160.563 124.912V145H122.561V124.912Z" fill="white"/>
<path fill-rule="evenodd" clip-rule="evenodd" d="M149.563 146V129.999H157.563V146" fill="white"/>
<path d="M149.563 146V129.999H157.563V146" stroke="#FDC82F" stroke-width="1.3" stroke-linecap="round" stroke-linejoin="round"/>
<path d="M155.563 138H154.562" stroke="#FDC82F" stroke-width="1.3" stroke-linecap="round"/>
<path d="M181.561 132L181.561 149" stroke="#004165" stroke-width="1.3" stroke-linecap="round" stroke-linejoin="round"/>
<path fill-rule="evenodd" clip-rule="evenodd" d="M151.67 118.598H183.029V132.164H160.305" fill="white"/>
<path d="M151.67 118.598H183.029V132.164H160.305" stroke="#004165" stroke-width="1.3" stroke-linecap="round" stroke-linejoin="round"/>
<path fill-rule="evenodd" clip-rule="evenodd" d="M143.571 121.406C143.571 122.689 142.527 123.729 141.238 123.729C139.95 123.729 138.905 122.689 138.905 121.406C138.905 120.123 139.95 119.083 141.238 119.083C142.527 119.083 143.571 120.123 143.571 121.406Z" fill="white" stroke="#007DBA" stroke-width="1.3" stroke-linecap="round" stroke-linejoin="round"/>
<path fill-rule="evenodd" clip-rule="evenodd" d="M123.064 128.017V148.333V128.017Z" stroke="#004165" stroke-width="1.3" stroke-linecap="round" stroke-linejoin="round"/>
<path fill-rule="evenodd" clip-rule="evenodd" d="M147.19 127.333V145.525V127.333Z" stroke="#004165" stroke-width="1.3" stroke-linecap="round" stroke-linejoin="round"/>
<path fill-rule="evenodd" clip-rule="evenodd" d="M160.069 127.333V148.075V127.333Z" stroke="#004165" stroke-width="1.3" stroke-linecap="round" stroke-linejoin="round"/>
<path fill-rule="evenodd" clip-rule="evenodd" d="M162.131 126.518L153.63 120.272L145.129 126.518L146.288 128.017L153.629 122.607L160.972 128.017L162.131 126.518Z" fill="white" stroke="#004165" stroke-width="1.3" stroke-linecap="round" stroke-linejoin="round"/>
<path fill-rule="evenodd" clip-rule="evenodd" d="M153.396 120.097L141.333 111L120 127.143L121.296 128.853L141.334 113.686L151.963 121.405" fill="white"/>
<path d="M153.396 120.097L141.333 111L120 127.143L121.296 128.853L141.334 113.686L151.963 121.405" stroke="#004165" stroke-width="1.3" stroke-linecap="round" stroke-linejoin="round"/>
<path fill-rule="evenodd" clip-rule="evenodd" d="M163.151 148.332V134.966H178.83V148.332" fill="white"/>
<path d="M163.151 148.332V134.966H178.83V148.332" stroke="#007DBA" stroke-width="1.3" stroke-linecap="round" stroke-linejoin="round"/>
<path d="M163.151 144.593H178.83" stroke="#007DBA" stroke-width="1.3" stroke-linecap="round" stroke-linejoin="round"/>
<path d="M163.151 139.966H178.83" stroke="#007DBA" stroke-width="1.3" stroke-linecap="round" stroke-linejoin="round"/>
<path d="M122 149H182" stroke="#004165" stroke-width="1.3" stroke-linecap="round"/>
<path d="M142.562 146V129.999H127.562V146" stroke="#007DBA" stroke-width="1.3" stroke-linecap="round" stroke-linejoin="round"/>
<path d="M131.561 130.5V146" stroke="#007DBA" stroke-width="1.3" stroke-linecap="round"/>
<path d="M138.561 130.5V146" stroke="#007DBA" stroke-width="1.3" stroke-linecap="round"/>
<path d="M123.561 146H159.737" stroke="#004165" stroke-width="1.3" stroke-linecap="round" stroke-linejoin="round"/>
</svg>
