<?xml version="1.0" standalone="no"?>
<!DOCTYPE svg PUBLIC "-//W3C//DTD SVG 20010904//EN"
 "http://www.w3.org/TR/2001/REC-SVG-20010904/DTD/svg10.dtd">
<svg version="1.0" xmlns="http://www.w3.org/2000/svg"
 width="1500.000000pt" height="643.000000pt" viewBox="0 0 1500.000000 643.000000"
 preserveAspectRatio="xMidYMid meet">
<metadata>
Created by potrace 1.16, written by Peter Selinger 2001-2019
</metadata>
<g transform="translate(0.000000,643.000000) scale(0.100000,-0.100000)"
fill="#000000" stroke="none">
<path d="M3605 5740 c-357 -187 -653 -339 -657 -340 -5 0 -8 83 -8 185 l0 185
-572 -2 -573 -3 -3 -550 -3 -550 -282 -174 c-716 -443 -1067 -663 -1067 -670
0 -10 104 -174 111 -175 4 -1 123 72 265 160 143 89 453 282 689 429 237 147
447 278 468 291 l37 24 0 500 0 500 355 0 355 0 0 -255 c0 -140 2 -255 5 -255
3 0 56 26 118 59 107 56 458 239 732 381 72 37 252 131 401 209 149 77 274
141 278 141 4 0 197 -114 429 -253 232 -139 689 -412 1014 -607 326 -195 589
-357 585 -361 -4 -4 -164 -96 -357 -204 -805 -454 -961 -542 -976 -551 -14 -8
-9 -21 35 -101 28 -51 54 -93 57 -93 4 0 224 123 490 273 266 150 718 405
1004 567 286 161 618 349 739 416 l218 124 237 -134 c130 -73 533 -301 896
-506 363 -205 803 -453 979 -553 175 -99 325 -180 332 -181 9 0 36 37 64 89
l49 90 -222 126 c-122 69 -421 237 -664 375 -244 137 -443 251 -443 254 0 3
138 88 308 189 169 101 630 377 1026 614 l719 430 61 -31 c33 -17 140 -72 236
-122 96 -51 353 -184 570 -297 217 -113 455 -237 527 -275 l133 -69 2 253 3
253 358 3 357 2 0 -502 1 -503 137 -84 c245 -151 1248 -775 1293 -804 l27 -18
57 91 c32 51 54 95 49 99 -7 7 -918 574 -1266 789 l-88 54 0 549 0 549 -570 0
-570 0 0 -185 c0 -102 -3 -185 -7 -185 -4 0 -147 73 -317 162 -171 88 -372
193 -446 231 -74 38 -229 119 -344 180 -158 82 -214 107 -225 100 -21 -13
-1928 -1154 -2110 -1262 -79 -47 -147 -85 -151 -84 -4 1 -230 128 -503 282
l-495 280 -249 -140 c-630 -357 -726 -410 -740 -405 -15 6 -44 23 -1375 820
-466 278 -853 508 -860 511 -7 2 -305 -148 -663 -335z"/>
<path d="M5551 3043 c-60 -21 -124 -88 -145 -149 -20 -62 -24 -92 -25 -236
l-1 -118 -35 0 -35 0 0 -85 0 -85 35 0 35 0 0 -280 0 -280 105 0 105 0 2 278
3 277 93 3 92 3 0 84 0 85 -96 0 -96 0 4 134 c3 118 6 138 24 163 31 41 66 51
120 31 l44 -16 0 93 0 93 -31 11 c-45 15 -146 12 -198 -6z"/>
<path d="M6116 3044 c-87 -32 -144 -102 -165 -202 -6 -29 -11 -109 -11 -177
l0 -125 -35 0 -35 0 0 -85 0 -85 35 0 35 0 0 -280 0 -280 105 0 105 0 0 280 0
280 95 0 95 0 0 85 0 85 -95 0 -95 0 0 113 c0 199 35 251 145 214 l45 -14 0
92 0 93 -31 11 c-44 15 -146 13 -193 -5z"/>
<path d="M3145 2938 c-86 -80 -34 -208 84 -208 70 0 121 51 121 120 0 71 -51
120 -125 120 -37 0 -52 -6 -80 -32z"/>
<path d="M440 2376 l0 -566 220 0 c124 0 242 5 272 11 111 24 197 90 240 184
29 65 31 178 5 247 -22 58 -102 133 -158 150 l-40 11 35 29 c51 42 78 105 78
186 1 116 -39 199 -121 251 -72 46 -112 53 -328 58 l-203 5 0 -566z m377 357
c69 -36 93 -131 48 -199 -23 -36 -90 -64 -152 -64 l-53 0 0 146 0 147 60 -6
c33 -3 77 -14 97 -24z m72 -458 c76 -44 98 -119 59 -194 -32 -63 -76 -83 -194
-89 l-94 -5 0 158 0 157 98 -4 c74 -3 106 -8 131 -23z"/>
<path d="M7005 2928 c-6 -17 -205 -1093 -205 -1107 0 -7 37 -11 109 -11 96 0
110 2 115 18 2 9 28 162 58 339 29 177 55 319 59 315 3 -4 63 -146 134 -317
70 -170 132 -320 138 -333 9 -19 17 -22 49 -20 l39 3 147 337 c81 185 148 336
149 334 2 -2 69 -444 88 -586 14 -99 2 -90 125 -90 86 0 110 3 110 13 0 18
-179 1088 -185 1105 -3 8 -29 12 -82 12 l-78 0 -130 -298 c-71 -163 -141 -324
-155 -356 l-26 -59 -60 144 c-34 79 -101 240 -150 357 l-88 212 -78 0 c-54 0
-80 -4 -83 -12z"/>
<path d="M9908 2668 l-3 -123 -42 -3 -43 -3 0 -84 0 -84 43 -3 42 -3 3 -277 2
-278 100 0 100 0 2 278 3 277 73 3 72 3 0 84 0 84 -72 3 -73 3 -3 123 -3 122
-99 0 -99 0 -3 -122z"/>
<path d="M1655 2559 c-144 -27 -235 -99 -297 -234 -19 -42 -23 -67 -23 -150 0
-93 2 -105 33 -167 41 -83 120 -158 200 -189 86 -33 238 -38 329 -10 181 55
294 235 266 422 -25 158 -120 269 -273 317 -45 15 -183 21 -235 11z m173 -194
c77 -33 121 -102 122 -191 0 -71 -33 -131 -95 -169 -41 -25 -58 -30 -112 -29
-53 0 -70 5 -106 30 -56 40 -87 97 -88 165 -1 63 9 93 47 138 54 65 153 88
232 56z"/>
<path d="M3899 2560 c-57 -10 -79 -21 -130 -67 l-39 -35 0 41 0 41 -105 0
-105 0 0 -365 0 -365 105 0 105 0 0 213 c0 236 7 276 54 323 59 59 163 54 210
-9 20 -27 21 -43 24 -278 l3 -249 105 0 105 0 -3 288 -3 287 -27 52 c-52 98
-167 146 -299 123z"/>
<path d="M4722 2559 c-218 -28 -360 -219 -330 -442 17 -128 95 -233 216 -290
65 -31 72 -32 197 -32 121 0 134 2 189 28 163 76 244 219 225 398 -26 237
-226 374 -497 338z m196 -211 c45 -30 92 -113 92 -162 0 -127 -114 -231 -233
-212 -110 18 -188 121 -174 229 8 59 55 127 107 155 61 32 150 28 208 -10z"/>
<path d="M8593 2559 c-140 -18 -266 -112 -314 -236 -30 -77 -32 -206 -5 -279
60 -163 202 -254 395 -254 141 0 219 28 307 112 135 128 153 353 39 507 -89
121 -237 174 -422 150z m162 -198 c79 -36 116 -97 116 -188 0 -96 -58 -171
-152 -193 -161 -39 -295 118 -235 275 40 104 168 154 271 106z"/>
<path d="M9645 2565 c-5 -2 -27 -6 -49 -10 -28 -5 -54 -21 -92 -57 l-53 -50 2
46 2 46 -102 0 -103 0 0 -365 0 -365 100 0 100 0 0 184 c0 254 12 307 82 359
32 24 115 33 159 18 18 -6 34 -9 36 -8 9 10 25 179 17 187 -10 9 -83 21 -99
15z"/>
<path d="M10590 2553 c-163 -41 -263 -185 -263 -378 0 -107 24 -179 83 -253
75 -95 175 -138 303 -130 79 5 119 22 165 68 17 16 32 30 34 30 10 0 -3 -174
-16 -197 -61 -119 -254 -123 -311 -6 l-20 42 -113 1 -112 0 6 -27 c20 -79 74
-167 128 -208 110 -84 355 -95 480 -21 55 32 112 95 139 154 21 46 22 59 25
480 l3 432 -105 0 -105 0 3 -40 3 -40 -40 36 c-21 20 -55 43 -75 51 -49 20
-146 23 -212 6z m227 -188 c52 -22 72 -42 99 -100 32 -67 31 -119 -3 -186 -92
-181 -373 -111 -373 93 0 55 20 111 53 147 51 56 151 76 224 46z"/>
<path d="M11550 2554 c-175 -46 -283 -210 -267 -408 17 -222 175 -366 385
-354 83 5 120 20 171 67 18 17 35 31 37 31 2 0 4 -18 4 -40 l0 -41 103 3 102
3 2 363 2 362 -104 0 -105 0 0 -41 0 -41 -41 37 c-23 20 -57 43 -75 51 -49 21
-150 24 -214 8z m238 -195 c111 -54 142 -221 60 -315 -126 -144 -348 -60 -348
131 0 66 16 109 56 149 60 59 152 73 232 35z"/>
<path d="M12510 2553 c-142 -36 -235 -143 -262 -302 -40 -236 109 -445 328
-459 98 -6 153 10 212 64 l48 42 -3 -71 c-1 -40 -5 -85 -8 -100 -16 -93 -133
-150 -236 -116 -44 15 -67 36 -90 82 l-19 37 -110 0 c-64 0 -110 -4 -110 -10
0 -5 9 -34 20 -64 56 -149 166 -223 344 -231 187 -9 317 61 385 205 l26 55 3
428 3 427 -105 0 -105 0 3 -40 c2 -22 1 -40 -1 -40 -2 0 -15 13 -28 29 -54 64
-185 92 -295 64z m238 -194 c51 -25 97 -89 107 -149 20 -118 -82 -240 -201
-240 -63 0 -144 51 -174 110 -22 44 -27 131 -9 177 14 37 66 92 104 109 46 20
122 17 173 -7z"/>
<path d="M13469 2551 c-163 -42 -256 -164 -267 -348 -6 -123 20 -211 86 -285
90 -99 177 -133 331 -126 82 3 106 8 156 33 32 15 77 47 100 70 41 43 83 110
74 119 -3 3 -45 12 -94 20 l-88 14 -36 -38 c-54 -57 -137 -75 -209 -45 -66 28
-86 56 -106 148 l-6 27 275 0 275 0 0 38 c0 62 -28 172 -55 217 -83 142 -253
203 -436 156z m220 -164 c38 -25 77 -89 66 -107 -8 -13 -322 -13 -330 0 -16
25 60 114 111 130 46 15 111 5 153 -23z"/>
<path d="M14310 2560 c-121 -15 -192 -93 -194 -210 -1 -108 53 -168 205 -229
110 -44 135 -71 109 -118 -36 -65 -126 -68 -206 -7 l-46 35 -25 -23 c-14 -13
-39 -40 -55 -61 l-31 -38 24 -25 c13 -14 52 -39 87 -56 52 -26 80 -33 146 -36
110 -6 177 14 241 70 61 53 85 105 85 183 0 121 -52 177 -209 230 -99 33 -121
48 -121 85 0 54 88 71 158 30 l36 -22 48 54 c26 29 48 58 48 65 0 26 -178 89
-235 82 -5 -1 -35 -5 -65 -9z"/>
<path d="M2290 2455 l0 -85 176 0 c97 0 174 -3 172 -8 -1 -4 -91 -124 -198
-267 -108 -143 -199 -266 -204 -272 -6 -10 71 -13 368 -13 l376 0 0 90 0 90
-191 2 -190 3 200 267 c111 147 201 270 201 273 0 3 -160 5 -355 5 l-355 0 0
-85z"/>
<path d="M3120 2175 l0 -365 105 0 105 0 0 365 0 365 -105 0 -105 0 0 -365z"/>
<path d="M2584 1019 c-265 -102 -281 -501 -26 -626 52 -25 67 -28 167 -28 128
0 174 16 248 84 68 63 100 144 100 251 0 72 -4 95 -28 148 -35 77 -103 143
-181 171 -74 28 -208 28 -280 0z m256 -128 c129 -77 133 -296 7 -379 -36 -24
-50 -27 -122 -27 -72 0 -86 3 -122 27 -55 36 -93 113 -93 188 0 178 179 282
330 191z"/>
<path d="M4453 1021 c-90 -31 -152 -90 -194 -187 -17 -38 -22 -68 -22 -134 0
-144 54 -245 164 -305 47 -25 67 -30 149 -33 80 -3 104 0 154 18 111 42 180
144 193 287 l6 63 -152 0 -151 0 0 -60 0 -60 80 0 c53 0 80 -4 80 -11 0 -28
-44 -79 -86 -99 -65 -32 -166 -26 -217 13 -55 42 -79 89 -85 166 -8 120 45
205 151 236 79 24 134 9 199 -52 l36 -35 51 28 c28 16 51 34 51 40 0 22 -82
96 -133 120 -66 30 -194 33 -274 5z"/>
<path d="M5894 1026 c-92 -29 -170 -105 -206 -200 -23 -59 -27 -168 -8 -235
28 -103 115 -195 210 -221 45 -13 175 -13 220 0 59 16 128 67 160 117 37 57
49 98 57 181 l6 62 -152 0 -151 0 0 -60 0 -60 80 0 c89 0 93 -4 60 -58 -41
-68 -176 -95 -260 -52 -147 75 -145 322 3 398 87 45 189 28 248 -40 l26 -31
51 29 c29 16 52 34 52 39 0 25 -65 86 -122 114 -55 28 -70 31 -147 30 -47 0
-104 -6 -127 -13z"/>
<path d="M7105 1024 c-73 -38 -105 -91 -105 -176 0 -59 23 -106 63 -133 14 -9
62 -31 108 -50 46 -20 90 -43 97 -52 6 -9 12 -34 12 -54 0 -96 -142 -110 -216
-22 l-19 22 -43 -39 -43 -38 33 -38 c69 -78 208 -108 303 -65 107 48 155 178
103 281 -27 53 -63 79 -160 116 -109 41 -134 79 -83 129 34 35 102 35 143 0
l30 -25 32 40 c18 22 30 46 27 54 -3 7 -29 25 -58 40 -63 31 -174 36 -224 10z"/>
<path d="M12165 1023 c-48 -25 -73 -53 -91 -99 -21 -55 -15 -135 13 -172 20
-27 97 -71 186 -106 79 -31 97 -101 38 -147 -21 -17 -36 -20 -79 -17 -44 4
-59 11 -90 41 l-38 37 -39 -40 -39 -40 20 -27 c12 -16 43 -41 69 -58 41 -25
61 -31 124 -33 68 -3 82 -1 131 25 46 24 60 37 83 82 46 91 33 187 -32 243
-22 18 -74 46 -116 62 -116 42 -142 80 -90 131 35 36 102 35 145 -1 17 -15 32
-25 33 -23 2 2 17 23 35 45 30 39 31 42 14 57 -59 54 -210 76 -277 40z"/>
<path d="M1545 713 c-32 -175 -60 -324 -63 -331 -3 -10 11 -12 64 -10 l69 3
32 189 c17 103 33 190 35 192 2 2 40 -83 84 -189 107 -258 100 -258 214 3 52
119 86 187 89 175 2 -11 16 -99 30 -195 l26 -175 68 -3 c66 -3 67 -2 62 20 -5
25 -105 623 -105 632 0 3 -22 6 -49 6 l-48 0 -91 -207 c-70 -159 -93 -203 -98
-188 -5 11 -43 103 -85 205 l-77 185 -49 3 -49 3 -59 -318z"/>
<path d="M3230 700 l0 -331 63 3 62 3 5 134 5 134 90 -136 90 -137 78 0 c42 0
77 3 77 8 0 4 -43 65 -96 136 -72 97 -92 131 -82 137 7 5 17 9 21 9 22 0 71
47 88 84 34 76 19 169 -39 229 -39 41 -107 57 -244 57 l-118 0 0 -330z m240
205 c34 -18 55 -71 41 -106 -15 -40 -47 -62 -101 -67 l-50 -5 0 97 0 96 40 0
c23 0 54 -7 70 -15z"/>
<path d="M3760 975 l0 -55 70 0 70 0 2 -272 3 -273 62 -3 63 -3 2 273 3 273
73 3 72 3 0 54 0 55 -210 0 -210 0 0 -55z"/>
<path d="M5225 998 c-7 -18 -70 -165 -139 -326 -69 -162 -126 -296 -126 -298
0 -3 32 -4 71 -2 l70 3 28 65 27 65 130 3 131 3 31 -71 31 -70 65 0 c38 0 66
4 66 10 0 11 -242 596 -260 631 -8 15 -22 19 -61 19 -47 0 -51 -2 -64 -32z
m112 -273 c22 -57 38 -107 35 -110 -3 -3 -43 -5 -90 -5 -76 0 -84 2 -78 18 36
96 81 202 86 202 4 0 25 -47 47 -105z"/>
<path d="M6482 703 l3 -328 183 -3 182 -2 0 54 0 55 -117 3 -118 3 -3 88 -3
87 116 0 115 0 0 55 0 55 -115 0 -116 0 3 73 3 72 118 3 117 3 0 54 0 55 -185
0 -185 0 2 -327z"/>
<path d="M7845 713 c-32 -175 -60 -324 -63 -331 -3 -10 11 -12 64 -10 l69 3
31 180 c17 99 32 186 35 193 2 7 40 -74 84 -180 108 -259 101 -259 214 1 47
107 87 189 89 182 2 -6 16 -94 30 -194 l27 -182 54 -3 c29 -2 59 -1 66 2 9 3
-1 85 -41 323 -30 175 -54 321 -54 326 0 4 -22 7 -49 7 l-49 0 -88 -204 c-49
-112 -91 -202 -93 -200 -2 2 -41 93 -87 201 l-82 198 -49 3 -49 3 -59 -318z"/>
<path d="M8777 711 c-75 -176 -137 -324 -137 -330 0 -7 25 -11 66 -11 l66 0
31 70 31 70 128 0 129 0 31 -70 31 -70 68 0 c38 0 69 2 69 5 0 2 -59 145 -131
317 -72 172 -133 319 -136 326 -3 7 -25 12 -57 12 l-51 0 -138 -319z m232 21
c23 -56 41 -107 41 -112 0 -6 -36 -10 -85 -10 -47 0 -85 4 -85 10 0 13 81 222
85 218 2 -2 22 -49 44 -106z"/>
<path d="M9400 700 l0 -332 148 4 c131 4 153 7 202 30 73 33 119 75 156 140
27 49 29 60 29 158 0 95 -3 110 -27 156 -32 60 -94 119 -157 147 -39 18 -71
22 -198 25 l-153 4 0 -332z m300 187 c132 -65 145 -280 22 -362 -39 -26 -150
-52 -177 -41 -13 4 -15 39 -15 222 l0 217 63 -7 c34 -4 82 -17 107 -29z"/>
<path d="M10092 703 l3 -328 183 -3 182 -2 0 54 0 55 -117 3 -118 3 -3 88 -3
87 116 0 115 0 0 55 0 55 -115 0 -116 0 3 73 3 72 118 3 117 3 0 54 0 55 -185
0 -185 0 2 -327z"/>
<path d="M10870 700 l0 -330 183 2 182 3 3 53 3 52 -120 0 -121 0 0 90 0 90
115 0 115 0 0 55 0 55 -115 0 -115 0 0 75 0 75 121 0 120 0 -3 53 -3 52 -182
3 -183 2 0 -330z"/>
<path d="M11586 998 c-8 -18 -71 -165 -140 -326 -69 -162 -126 -296 -126 -298
0 -3 32 -4 71 -2 l70 3 28 65 27 65 130 3 131 3 31 -71 31 -70 65 0 c46 0 66
4 66 13 0 6 -60 154 -133 327 l-132 315 -53 3 c-51 3 -53 2 -66 -30z m112
-275 c22 -56 37 -104 34 -107 -3 -3 -43 -6 -90 -6 -76 0 -84 2 -78 18 56 148
82 209 88 204 4 -4 25 -53 46 -109z"/>
<path d="M12530 1026 c0 -3 50 -83 110 -179 l110 -174 0 -151 0 -152 65 0 65
0 0 149 0 148 115 177 c63 97 115 179 115 182 0 3 -35 4 -77 2 l-77 -3 -65
-107 c-36 -59 -68 -108 -71 -108 -3 1 -35 49 -71 108 l-66 107 -76 3 c-42 2
-77 1 -77 -2z"/>
</g>
</svg>
